<?xml version="1.0" encoding="UTF-8" standalone="no"?>
<!-- Created with Inkscape (http://www.inkscape.org/) -->

<svg
   width="210mm"
   height="297mm"
   viewBox="0 0 210 297"
   version="1.1"
   id="svg12"
   inkscape:version="1.1.2 (b8e25be833, 2022-02-05)"
   sodipodi:docname="描画.svg"
   xmlns:inkscape="http://www.inkscape.org/namespaces/inkscape"
   xmlns:sodipodi="http://sodipodi.sourceforge.net/DTD/sodipodi-0.dtd"
   xmlns="http://www.w3.org/2000/svg"
   xmlns:svg="http://www.w3.org/2000/svg">
  <sodipodi:namedview
     id="namedview14"
     pagecolor="#ffffff"
     bordercolor="#666666"
     borderopacity="1.0"
     inkscape:pageshadow="2"
     inkscape:pageopacity="0.0"
     inkscape:pagecheckerboard="0"
     inkscape:document-units="mm"
     showgrid="false"
     inkscape:zoom="0.7198092"
     inkscape:cx="605.02144"
     inkscape:cy="514.71973"
     inkscape:window-width="1920"
     inkscape:window-height="1001"
     inkscape:window-x="-9"
     inkscape:window-y="-9"
     inkscape:window-maximized="1"
     inkscape:current-layer="layer1" />
  <defs
     id="defs9" />
  <g
     inkscape:label="Layer 1"
     inkscape:groupmode="layer"
     id="layer1">
    <path
       id="text1296"
       style="font-style:normal;font-variant:normal;font-weight:normal;font-stretch:normal;font-size:352.778px;line-height:1.25;font-family:'Tempus Sans ITC';-inkscape-font-specification:'Tempus Sans ITC';fill:#000000;fill-opacity:1;stroke:none;stroke-width:0.999999"
       d="M 286.03516 496.27539 L 205.16211 422.53906 C 202.69036 423.45453 200.02447 423.91797 197.16016 423.91797 C 195.42404 433.90061 190.64844 450.39495 182.83594 473.39844 C 175.45746 495.9679 171.76953 513.76236 171.76953 526.7832 C 186.96051 526.7832 214.73695 519.83812 255.10156 505.94922 C 265.66146 502.24202 275.96938 499.02305 286.03516 496.27539 z "
       transform="scale(0.26458333)" />
    <path
       id="path14553"
       style="font-style:normal;font-variant:normal;font-weight:normal;font-stretch:normal;font-size:352.778px;line-height:1.25;font-family:'Tempus Sans ITC';-inkscape-font-specification:'Tempus Sans ITC';fill:#000000;fill-opacity:1;stroke:none;stroke-width:0.999999"
       d="M 284.30273 968.4707 L 174.55078 898.20703 C 171.61554 901.29972 169.16679 904.66067 167.21094 908.29297 C 158.53038 925.22006 154.19141 937.15711 154.19141 944.10156 C 154.19141 957.55643 165.2591 972.74673 187.39453 989.67383 C 192.60287 987.93772 195.85807 987.07031 197.16016 987.07031 C 198.89627 987.07031 210.39669 989.45616 231.66406 994.23047 C 234.00459 994.74539 236.40889 995.22615 238.85547 995.68555 L 284.30273 968.4707 z "
       transform="scale(0.26458333)" />
    <path
       id="path15493"
       style="font-style:normal;font-variant:normal;font-weight:normal;font-stretch:normal;font-size:352.778px;line-height:1.25;font-family:'Tempus Sans ITC';-inkscape-font-specification:'Tempus Sans ITC';fill:#000000;fill-opacity:1;stroke:none;stroke-width:0.999999"
       d="M 284.30273 968.4707 L 238.85547 995.68555 C 259.09356 999.48567 282.94896 1001.3926 310.44141 1001.3926 C 318.7763 1001.3926 326.95431 1001.2315 334.98633 1000.9199 L 284.30273 968.4707 z "
       transform="scale(0.26458333)" />
    <path
       id="path15257"
       style="font-style:normal;font-variant:normal;font-weight:normal;font-stretch:normal;font-size:352.778px;line-height:1.25;font-family:'Tempus Sans ITC';-inkscape-font-specification:'Tempus Sans ITC';fill:#000000;fill-opacity:1;stroke:none;stroke-width:0.999999"
       d="M 233.44336 935.91211 L 275.83789 914.8457 C 274.4338 914.03132 272.97054 913.16804 271.37891 912.19922 C 261.83029 906.12283 255.31988 902.65126 251.84766 901.7832 C 251.41363 899.17903 247.94011 895.48915 241.42969 890.71484 C 234.91927 885.50651 229.92926 880.29818 226.45703 875.08984 C 202.59458 879.18055 185.29422 886.8873 174.55078 898.20703 L 233.44336 935.91211 z "
       transform="scale(0.26458333)" />
    <path
       id="path15375"
       style="font-style:normal;font-variant:normal;font-weight:normal;font-stretch:normal;font-size:352.778px;line-height:1.25;font-family:'Tempus Sans ITC';-inkscape-font-specification:'Tempus Sans ITC';fill:#000000;fill-opacity:1;stroke:none;stroke-width:0.999999"
       d="M 574.22656 906.79883 L 540.95898 884.31445 C 507.67242 922.43472 457.52813 941.49609 390.51953 941.49609 C 366.21396 941.49609 347.11741 939.76129 333.22852 936.28906 L 329.32227 936.28906 C 325.41601 936.28906 320.20769 933.6849 313.69727 928.47656 C 307.62087 922.8342 301.54319 920.01172 295.4668 920.01172 L 290.25977 921.31445 C 288.07081 921.31445 283.24018 919.13906 275.83789 914.8457 L 233.44336 935.91211 L 334.98633 1000.9199 C 440.71996 996.81891 520.21607 965.73002 573.46289 907.64258 C 573.7196 907.36253 573.97101 907.07953 574.22656 906.79883 z "
       transform="scale(0.26458333)" />
    <path
       id="path15611"
       style="font-style:normal;font-variant:normal;font-weight:normal;font-stretch:normal;font-size:352.778px;line-height:1.25;font-family:'Tempus Sans ITC';-inkscape-font-specification:'Tempus Sans ITC';fill:#000000;fill-opacity:1;stroke:none;stroke-width:0.999999"
       d="M 609.79492 512.96094 L 546.11914 554.5957 C 581.70681 594.61639 599.50391 648.49468 599.50391 716.23633 C 599.50391 775.69817 582.79321 828.21612 549.37305 873.78906 C 546.70033 877.44647 543.89385 880.95341 540.95898 884.31445 L 574.22656 906.79883 C 631.00601 844.4317 659.40039 765.7224 659.40039 670.66406 C 659.40039 605.5185 642.8632 552.95228 609.79492 512.96094 z "
       transform="scale(0.26458333)" />
    <path
       id="path14784"
       style="font-style:normal;font-variant:normal;font-weight:normal;font-stretch:normal;font-size:352.778px;line-height:1.25;font-family:'Tempus Sans ITC';-inkscape-font-specification:'Tempus Sans ITC';fill:#000000;fill-opacity:1;stroke:none;stroke-width:0.999999"
       d="M 301.48242 423.84766 L 243.12891 457.15625 L 286.03516 496.27539 C 314.85897 488.40733 341.66161 484.46484 366.43164 484.46484 C 439.78238 484.46484 496.85566 504.86542 537.6543 545.66406 C 540.58068 548.55964 543.40045 551.53835 546.11914 554.5957 L 609.79492 512.96094 C 601.88456 503.39449 593.03114 494.54493 583.22852 486.41797 C 532.88126 443.88322 458.87897 422.61719 361.22266 422.61719 L 301.48242 423.84766 z "
       transform="scale(0.26458333)" />
    <path
       id="path14902"
       style="font-style:normal;font-variant:normal;font-weight:normal;font-stretch:normal;font-size:352.778px;line-height:1.25;font-family:'Tempus Sans ITC';-inkscape-font-specification:'Tempus Sans ITC';fill:#000000;fill-opacity:1;stroke:none;stroke-width:0.999999"
       d="M 262.75391 350.96289 L 209.0293 367.37891 C 207.75875 373.37355 206.40892 379.41606 204.97266 385.50781 C 201.50043 399.83074 199.76367 408.72699 199.76367 412.19922 C 199.76367 416.5395 201.50043 418.71094 204.97266 418.71094 C 206.70877 418.71094 210.18034 417.40886 215.38867 414.80469 C 212.46775 418.52223 209.05758 421.0963 205.16211 422.53906 L 243.12891 457.15625 L 301.48242 423.84766 L 298.07227 423.91797 C 290.25976 423.91797 282.66363 421.74848 275.28516 417.4082 C 268.34071 413.06792 264.86719 409.16168 264.86719 405.68945 L 264.86719 404.38672 C 264.86719 383.76105 264.16145 365.95671 262.75391 350.96289 z "
       transform="scale(0.26458333)" />
    <path
       id="path15139"
       style="font-style:normal;font-variant:normal;font-weight:normal;font-stretch:normal;font-size:352.778px;line-height:1.25;font-family:'Tempus Sans ITC';-inkscape-font-specification:'Tempus Sans ITC';fill:#000000;fill-opacity:1;stroke:none;stroke-width:0.999999"
       d="M 223.73242 243.48633 C 223.19952 282.22334 218.32873 323.50279 209.0293 367.37891 L 262.75391 350.96289 C 262.41392 347.34123 262.03548 343.87912 261.61328 340.58594 C 259.44314 323.22481 258.35742 313.67557 258.35742 311.93945 C 258.35742 297.27922 259.31419 283.00152 261.22461 269.10547 L 223.73242 243.48633 z "
       transform="scale(0.26458333)" />
    <path
       id="path15021"
       style="font-style:normal;font-variant:normal;font-weight:normal;font-stretch:normal;font-size:352.778px;line-height:1.25;font-family:'Tempus Sans ITC';-inkscape-font-specification:'Tempus Sans ITC';fill:#000000;fill-opacity:1;stroke:none;stroke-width:0.999999"
       d="M 253.14844 82.771484 C 244.9019 82.771484 236.87305 88.198126 229.06055 99.048828 C 221.24804 109.89953 217.3418 121.39995 217.3418 133.55273 C 217.3418 137.45899 217.99284 145.05511 219.29492 156.33984 C 220.59701 167.19055 221.24805 176.08875 221.24805 183.0332 L 219.94531 202.56445 L 223.85156 236.41797 C 223.85156 238.75067 223.76477 241.13465 223.73242 243.48633 L 261.22461 269.10547 C 265.42261 238.5699 274.23146 209.87887 287.6543 183.0332 C 310.22376 179.12695 329.75498 177.17383 346.24805 177.17383 L 400.19531 179.26367 C 396.56036 176.84242 393.1615 174.6478 389.50586 172.19922 C 372.47243 160.79008 355.31329 149.15203 338.94141 137.90234 C 322.56952 126.65266 306.98482 115.79221 293.10352 105.94141 C 291.94897 105.12208 291.27109 104.59211 290.14062 103.78711 C 281.98288 102.3389 277.19458 101.18896 275.93555 100.34961 C 273.33138 98.613492 269.6415 95.358293 264.86719 90.583984 C 260.52691 85.375648 256.62066 82.771484 253.14844 82.771484 z "
       transform="scale(0.26458333)" />
    <path
       id="path14435"
       style="font-style:normal;font-variant:normal;font-weight:normal;font-stretch:normal;font-size:352.778px;line-height:1.25;font-family:'Tempus Sans ITC';-inkscape-font-specification:'Tempus Sans ITC';fill:#000000;fill-opacity:1;stroke:none;stroke-width:0.999999"
       d="M 290.14062 103.78711 C 291.27109 104.59211 291.94897 105.12208 293.10352 105.94141 C 306.98482 115.79221 322.56952 126.65266 338.94141 137.90234 C 355.31329 149.15203 372.47243 160.79008 389.50586 172.19922 C 393.1615 174.6478 396.56036 176.84242 400.19531 179.26367 L 430.23242 180.42773 C 444.98938 180.42773 460.18163 178.90929 475.80664 175.87109 L 494.03516 171.96484 C 513.13239 171.96484 527.88997 176.08745 538.30664 184.33398 C 543.51498 183.89996 550.24175 182.59787 558.48828 180.42773 C 567.16884 178.25759 573.24457 177.17383 576.7168 177.17383 C 581.49111 177.17383 586.48307 178.90863 591.69141 182.38086 C 597.33377 185.41906 604.9299 188.4579 614.47852 191.49609 C 624.02713 194.53429 629.23546 198.22417 630.10352 202.56445 L 635.96289 202.56445 C 650.28582 202.56445 660.26779 193.66624 665.91016 175.87109 C 666.47996 174.07402 667.19127 171.87858 667.7832 170.01953 C 667.52592 169.84205 667.27492 169.66771 667.01758 169.49023 C 658.83399 163.84638 650.62093 158.20216 642.49805 152.64648 C 634.37517 147.09081 626.34284 141.62315 618.52148 136.33203 C 614.61081 133.68647 610.75108 131.08541 606.96094 128.53906 C 603.17079 125.99271 599.45005 123.50127 595.81055 121.07617 C 592.17104 118.65108 588.61307 116.29156 585.1543 114.00977 C 582.47602 112.24287 579.91326 110.56572 577.35938 108.89648 C 570.43149 109.54538 562.8722 110.17009 554.58203 110.76758 C 506.40492 114.2398 469.51195 115.97461 443.9043 115.97461 C 398.76538 115.97461 360.13761 113.80512 328.01953 109.46484 C 311.4295 107.22295 298.85633 105.33436 290.14062 103.78711 z "
       transform="scale(0.26458333)" />
    <path
       id="path13515"
       style="font-style:normal;font-variant:normal;font-weight:normal;font-stretch:normal;font-size:352.778px;line-height:1.25;font-family:'Tempus Sans ITC';-inkscape-font-specification:'Tempus Sans ITC';fill:#000000;fill-opacity:1;stroke:none;stroke-width:0.999999"
       d="M 656.20898 96.884766 L 638.56641 97.746094 L 630.10352 97.746094 C 628.30681 102.0582 610.69186 105.77441 577.35938 108.89648 C 579.91326 110.56572 582.47602 112.24287 585.1543 114.00977 C 588.61307 116.29156 592.17104 118.65108 595.81055 121.07617 C 599.45005 123.50127 603.17079 125.99271 606.96094 128.53906 C 610.75108 131.08541 614.61081 133.68647 618.52148 136.33203 C 620.56997 137.71782 622.66692 139.14431 624.74219 140.55273 C 626.95498 137.45861 629.30931 134.13323 631.4707 131.11914 C 636.16487 124.57308 640.72167 118.24097 645.06445 112.23047 C 648.9946 106.79107 652.68304 101.71675 656.20898 96.884766 z "
       transform="scale(0.26458333)" />
    <path
       id="path13784"
       style="font-style:normal;font-variant:normal;font-weight:normal;font-stretch:normal;font-size:352.778px;line-height:1.25;font-family:'Tempus Sans ITC';-inkscape-font-specification:'Tempus Sans ITC';fill:#000000;fill-opacity:1;stroke:none;stroke-width:0.999999"
       d="M 656.20898 96.884766 C 652.68304 101.71675 648.9946 106.79107 645.06445 112.23047 C 640.72167 118.24097 636.16487 124.57308 631.4707 131.11914 C 629.30931 134.13323 626.95498 137.45861 624.74219 140.55273 C 630.59053 144.52183 636.50262 148.54589 642.49805 152.64648 C 650.62093 158.20216 658.83399 163.84638 667.01758 169.49023 C 667.27492 169.66771 667.52592 169.84205 667.7832 170.01953 C 673.05279 153.46979 679.06825 134.83192 686.0918 113.37109 C 683.92166 102.08636 676.97852 96.443359 665.25977 96.443359 L 656.20898 96.884766 z "
       transform="scale(0.26458333)" />
  </g>
</svg>
