<svg xmlns="http://www.w3.org/2000/svg" viewBox="0 0 130 180"><defs><style>.a{fill:#fff}</style></defs><path class="a" d="m19.58 167.29-.43 3a22 22 0 0 1-3.28.22 7.21 7.21 0 0 1-4.09-.91A5.53 5.53 0 0 1 10 167l-.68-1.82a8.91 8.91 0 0 1-7-3.93A14.45 14.45 0 0 1 0 152.82q0-6.25 3.24-9.61a9.33 9.33 0 0 1 7.08-2.84 9.2 9.2 0 0 1 7.8 3.66c1.66 2.18 2.48 5.09 2.48 8.73a14.42 14.42 0 0 1-2.3 8.51 8.55 8.55 0 0 1-5.17 3.54l.41 1.18a2.25 2.25 0 0 0 1.09 1.3 4.2 4.2 0 0 0 1.92.34 15 15 0 0 0 3.03-.34Zm-9.26-23.67a4.91 4.91 0 0 0-4.47 2.59 12.88 12.88 0 0 0-1.42 6.58c0 3.18.61 5.59 1.83 7.21a4.84 4.84 0 0 0 4.06 2 4.86 4.86 0 0 0 4.44-2.65 13 13 0 0 0 1.41-6.59q0-4.81-1.81-7.19a4.81 4.81 0 0 0-4.04-1.95ZM38.57 147.84v17h-3.78v-2.93a7 7 0 0 1-2.55 2.57 5.91 5.91 0 0 1-3 .8 4.8 4.8 0 0 1-3.66-1.42 5.06 5.06 0 0 1-1.26-3.6v-12.42h4v11.3c0 1.87.79 2.8 2.39 2.8a3.76 3.76 0 0 0 2.33-.94 6 6 0 0 0 1.6-2v-11.16ZM57.5 157.19H46a6.21 6.21 0 0 0 1.24 4.08 3.78 3.78 0 0 0 3 1.29c1.82 0 3-1.08 3.58-3.24l3.54 1q-1.6 4.93-7.17 4.93a7.47 7.47 0 0 1-6.18-2.63 9.57 9.57 0 0 1-1.86-6.2 9.32 9.32 0 0 1 2.42-6.87 7.08 7.08 0 0 1 5.29-2.12 6.88 6.88 0 0 1 5.69 2.62 9.77 9.77 0 0 1 1.9 6.31Zm-3.81-2.57q-.28-4.47-3.72-4.47a3.42 3.42 0 0 0-2.89 1.37 5.74 5.74 0 0 0-1 3.1ZM73.63 151.8l-3.69 1.06c-.43-1.82-1.43-2.74-3-2.74a3.16 3.16 0 0 0-2 .61 1.49 1.49 0 0 0-.62 1.22 1.93 1.93 0 0 0 .68 1.61 7.47 7.47 0 0 0 2.35.94l1.42.37A8.8 8.8 0 0 1 73 157a4.42 4.42 0 0 1 1 3.07 4.55 4.55 0 0 1-2 3.93 8.28 8.28 0 0 1-4.94 1.3c-3.7 0-6.06-1.41-7.09-4.25l3.63-1.27a3.45 3.45 0 0 0 3.56 2.86c2.06 0 3.1-.73 3.1-2.19a1.8 1.8 0 0 0-.73-1.59 10.86 10.86 0 0 0-2.56-1l-1.42-.39a8 8 0 0 1-4-2.06 4.71 4.71 0 0 1-.95-3.12 4.2 4.2 0 0 1 1.86-3.61 7.58 7.58 0 0 1 4.54-1.22q5.16 0 6.63 4.34ZM82.41 142.29v5.55h3.81v2.84h-3.81V160c0 1.63.7 2.45 2.1 2.45a8.82 8.82 0 0 0 2-.2l-.15 2.79a20.56 20.56 0 0 1-3 .19 4.84 4.84 0 0 1-3.78-1.23 4.72 4.72 0 0 1-1-3.28v-10H76v-2.84h2.54v-4.68ZM93.32 140.81v4H89.1v-4Zm-.17 7v17h-3.9v-17ZM104.45 147.46a7 7 0 0 1 5.82 2.68 9.75 9.75 0 0 1 1.86 6.19 9.37 9.37 0 0 1-2.39 6.85 7.11 7.11 0 0 1-5.32 2.1 7 7 0 0 1-5.84-2.68 9.74 9.74 0 0 1-1.85-6.18 9.39 9.39 0 0 1 2.41-6.86 7.13 7.13 0 0 1 5.31-2.1Zm0 2.82c-2.48 0-3.72 2-3.72 6.08s1.23 6.11 3.69 6.11 3.72-2 3.72-6.11-1.23-6.08-3.69-6.08ZM119.56 147.84v3a8.29 8.29 0 0 1 2.66-2.56 5.89 5.89 0 0 1 2.92-.8 4.63 4.63 0 0 1 3.65 1.51 5.21 5.21 0 0 1 1.21 3.6v12.27h-4v-11.2c0-1.9-.79-2.85-2.36-2.85a3.71 3.71 0 0 0-2.24.87 7.45 7.45 0 0 0-1.73 2v11.15h-3.9v-17ZM127.9 123.43c-10.35 2.27-15.4-4.44-21.24-12.21L105 109a59.84 59.84 0 1 0-3.85 3.2l1.51 2c5.2 6.94 11 14.67 21.26 14.67a23.08 23.08 0 0 0 5-.58ZM65 119.5a54.58 54.58 0 1 1 36.84-14.38c-6-6.89-13.77-12.22-27.42-7.93l1.5 4.77c10.89-3.43 16.85.36 22.09 6.37A54.23 54.23 0 0 1 65 119.5Z"/></svg>